<svg xmlns="http://www.w3.org/2000/svg" xmlns:xlink="http://www.w3.org/1999/xlink" width="71.224" height="67.134" viewBox="0 0 71.224 67.134">
  <defs>
    <radialGradient id="radial-gradient" cx="0.5" cy="0.5" r="0.363" gradientUnits="objectBoundingBox">
      <stop offset="0.574" stop-color="#161412"/>
      <stop offset="0.798" stop-color="#161412"/>
      <stop offset="1" stop-color="#161412"/>
    </radialGradient>
  </defs>
  <g id="Group_5609" data-name="Group 5609" transform="translate(0 0)">
    <path id="Path_63317" data-name="Path 63317" d="M5570.662,1478.6l8.416-4.127a1.025,1.025,0,0,0,.469-1.369l-.177-.362a1.025,1.025,0,0,0-1.37-.467l-8.415,4.126a1.02,1.02,0,0,0-.469,1.369l.177.362A1.022,1.022,0,0,0,5570.662,1478.6Z" transform="translate(-5544.969 -1443.277)" fill="#b23c14"/>
    <g id="Group_3687" data-name="Group 3687" transform="translate(24.019 0)">
      <path id="Path_63318" data-name="Path 63318" d="M5318.916,1163.3c.686-.086,5.056-.235,5.056-.235l7.493-3.944a.712.712,0,0,0,.349-.41l1.689-2.794,3.17.1.24,2.183a3.906,3.906,0,0,1-1.736,3.613l-10.027,3.423c-.2.337-2.166-.114-2.166-.114s-.873-.457-4.914-.185C5317.153,1165.007,5318.005,1163.419,5318.916,1163.3Z" transform="translate(-5317.677 -1137.817)" fill="#f9a78a"/>
      <path id="Path_63319" data-name="Path 63319" d="M5525.456,2376.354l-.665,3.521-3.255-1.166.68-3.139Z" transform="translate(-5513.175 -2315.869)" fill="#f9a78a"/>
      <path id="Path_63320" data-name="Path 63320" d="M4593.8,2319.653l-3.223-2.273-1.858,2.385,3.376,2.633Z" transform="translate(-4549.699 -2259.662)" fill="#f9a78a"/>
      <g id="Group_3678" data-name="Group 3678" transform="translate(8.359 26.031)">
        <path id="Path_63321" data-name="Path 63321" d="M4648.083,1423.224l4.027,1.057.212-1.062.029-.142h0c.025-.035.056-.073.085-.115a20.891,20.891,0,0,0,4.54-13.453,14.751,14.751,0,0,0,3.118-4.585,23.594,23.594,0,0,0,1.139-2.89c.717,2.855,1.883,6.5,2.393,8.055a5.074,5.074,0,0,0,.758,1.463c5.521,7.39,13.2,10.933,14.36,11.231.088.023.138.034.138.034l.117.084.724.514,2.076-3.323a1.381,1.381,0,0,0-.623-.42.586.586,0,0,0-.141-.026c-.02-.043-.042-.087-.065-.13-3.138-6.21-10.936-11.35-10.936-11.35.227-4.958-1.021-10.576-1.655-13.418-.051-.217-.094-.417-.134-.6a14.589,14.589,0,0,0-1.119-3.038,27.281,27.281,0,0,0-1.517-2.753l-8.166-.019.02.058a.105.105,0,0,1-.02-.018l-1.137,6.636-5.181,10.407a9.81,9.81,0,0,0-.919,2.96l-1.929,13.63-.021.142-.023.145Z" transform="translate(-4648.083 -1388.339)" fill="#330601"/>
        <path id="Path_63322" data-name="Path 63322" d="M5251.667,1661.448a23.067,23.067,0,0,0,1.138-2.889l-1.761-4.638Z" transform="translate(-5239.656 -1644.864)" fill="url(#radial-gradient)"/>
      </g>
      <g id="Group_3679" data-name="Group 3679" transform="translate(1.903 57.02)">
        <path id="Path_63323" data-name="Path 63323" d="M5462.954,2303.355l.042-.128.04-.121.076-.248a1.774,1.774,0,0,1,1.526-1.232l4.517-.428-.011-.014.409-4.262,5.755,2.131-2.353,6.917-.017.143-.026.206a.358.358,0,0,1-.455.3l-9.171-2.647A.489.489,0,0,1,5462.954,2303.355Z" transform="translate(-5462.932 -2296.922)" fill="#de875a"/>
        <path id="Path_63324" data-name="Path 63324" d="M5532.527,2481.788l-.042.128a.485.485,0,0,0,.329.616l9.171,2.647a.356.356,0,0,0,.454-.3l.026-.2Z" transform="translate(-5532.46 -2475.483)" fill="#330601"/>
      </g>
      <g id="Group_3680" data-name="Group 3680" transform="translate(37.554 55.69)">
        <path id="Path_63325" data-name="Path 63325" d="M4498.674,2267.118l.848-.328a.785.785,0,0,0,.495-.643l.148-1.331a1.46,1.46,0,0,0-.8-1.471l-1.763-.886,3.713-4.538,5.588,4.792.136.073a.414.414,0,0,1,.117.625l-1.529,1.823-.715.852-2.46,2.93a.977.977,0,0,1-.75.349h-3.837a.264.264,0,0,1-.263-.264v-.42A1.677,1.677,0,0,1,4498.674,2267.118Z" transform="translate(-4497.605 -2257.922)" fill="#de875a"/>
        <path id="Path_63326" data-name="Path 63326" d="M4497.6,2404.372v.4a.263.263,0,0,0,.263.263h3.837a.976.976,0,0,0,.75-.348l4.705-5.6a.411.411,0,0,0-.117-.623l-.136-.076-4.592,5.579a1.133,1.133,0,0,1-.878.414Z" transform="translate(-4497.605 -2393.588)" fill="#330601"/>
      </g>
      <g id="Group_3681" data-name="Group 3681" transform="translate(14.428 10.017)">
        <path id="Path_63327" data-name="Path 63327" d="M5367.826,1017.922l-3.209,5.355,3.171,1.356Z" transform="translate(-5364.617 -1014.541)" fill="#bdccd4"/>
        <path id="Path_63328" data-name="Path 63328" d="M4985.214,942.1h12.65a1.154,1.154,0,0,0,1.135-1.352l-1.331-7.643-.253-1.464-1.3-7.458a5.876,5.876,0,0,0-4.517-5.192l-.158-.037a4.8,4.8,0,0,0-1.106-.152,1.965,1.965,0,0,0-.608.084c-.476.16-1.036.33-1.576.534a3.284,3.284,0,0,0-.642.265,6.212,6.212,0,0,0-1.479,1.931c0,.007-.145.319-.167.4a7.269,7.269,0,0,0-.172,1.194l-.518,4.577-.382,4.452-.121,1.446-.61,7.168A1.154,1.154,0,0,0,4985.214,942.1Z" transform="translate(-4982.831 -918.802)" fill="#9c1803"/>
      </g>
      <line id="Line_13" data-name="Line 13" x2="0.273" y2="2.865" transform="translate(26.534 17.558)" fill="#f7931e"/>
      <path id="Path_63329" data-name="Path 63329" d="M5201.446,928.025l4.3-9.034-.158-.037a4.791,4.791,0,0,0-1.109-.152,1.93,1.93,0,0,0-.6.084c-.481.16-1.038.33-1.578.534l-.116.136Z" transform="translate(-5182.549 -908.785)" fill="#bdccd4"/>
      <g id="Group_3686" data-name="Group 3686" transform="translate(14.18 0)">
        <g id="Group_3684" data-name="Group 3684" transform="translate(2.328 0.623)">
          <path id="Path_63330" data-name="Path 63330" d="M5216.2,816.227c0,.006,0,.012.005.018l.189,1,.187,1.014c.149.792-.325,2.786.519,2.627s2.684-2.411,2.534-3.2l-.3-1.575-.081-.44-.083-.839c-.118-.636-.685-.82-1.331-.892a1.652,1.652,0,0,0-.49.019,1.611,1.611,0,0,0-1,.623,1.416,1.416,0,0,0-.255,1.1Z" transform="translate(-5213.447 -808.112)" fill="#f7ac92"/>
          <path id="Path_63331" data-name="Path 63331" d="M5230.121,816.534l.294,1.593a2.785,2.785,0,0,0,1.456-.682c1.7-1.547,1.115-2.306,1.115-2.306-.117-.635-.578-.839-1.225-.911a8.5,8.5,0,0,0-1.385,1.21,1.425,1.425,0,0,0-.259,1.078C5230.118,816.522,5230.121,816.528,5230.121,816.534Z" transform="translate(-5227.369 -808.401)" fill="#e5332a" opacity="0.2"/>
          <path id="Path_63333" data-name="Path 63333" d="M5212.6,689.961c.288,1.961.658,3.759,2.136,3.541s3.508-2.368,3.221-4.33a4.812,4.812,0,0,0-.274-1.027c-.018-.048-.037-.094-.057-.141-.009-.019-.019-.039-.027-.059s-.026-.059-.042-.088a3.376,3.376,0,0,0-1.6-1.666.179.179,0,0,1-.024-.01l-.046-.019-.033-.014a2.11,2.11,0,0,0-1.934.179,2.766,2.766,0,0,0-.256.189c-.042.035-.083.073-.123.112-.022.023-.048.046-.069.069a3.355,3.355,0,0,0-.806,1.54c-.026.105-.047.213-.064.322-.014.079-.025.16-.033.242a.539.539,0,0,0-.008.073A4.608,4.608,0,0,0,5212.6,689.961Z" transform="translate(-5211.669 -684.54)" fill="#f7ac92"/>
          <path id="Path_63334" data-name="Path 63334" d="M5183.524,644.706c.6-1.1,2.261-1.77,5.012-.981.81.233,1.107,1.337,1.311,2.372a9.006,9.006,0,0,1,.157,1.525,2.986,2.986,0,0,1-.031.541c-.074.468-.339,1.22.25,1.344,0,0-1.292,1.2-1.625.837h0l-.951-2.46-1.211-.825s-3.747.816-3.528-.187A17.412,17.412,0,0,1,5183.524,644.706Z" transform="translate(-5182.897 -643.382)" fill="#3f1401"/>
          <path id="Path_63335" data-name="Path 63335" d="M5295.4,769.727c.021,0,.035-.05.015-.07a1.121,1.121,0,0,0-.2-.162.963.963,0,0,0-.28-.122.757.757,0,0,0-.3-.023.542.542,0,0,0-.234.085c-.021.014-.018.065,0,.071.074.021.145.044.219.066.093.027.182.056.276.08a2.829,2.829,0,0,0,.281.06A1.34,1.34,0,0,0,5295.4,769.727Z" transform="translate(-5291.905 -765.047)" fill="#1a1a1a"/>
          <path id="Path_63336" data-name="Path 63336" d="M5352.751,766.495c-.019.011-.022.051-.01.056a1.127,1.127,0,0,0,.183.033c.077.008.153.011.232.011s.158,0,.234,0c.061,0,.123-.006.189-.007.016,0,.029-.039.02-.053a.43.43,0,0,0-.16-.113.629.629,0,0,0-.24-.043.9.9,0,0,0-.249.037A.906.906,0,0,0,5352.751,766.495Z" transform="translate(-5352.072 -762.18)" fill="#1a1a1a"/>
          <g id="Group_3682" data-name="Group 3682" transform="translate(2.517 4.707)">
            <path id="Path_63337" data-name="Path 63337" d="M5310.832,781.72c.012.182.118.326.24.318s.214-.16.2-.343-.116-.325-.238-.319S5310.822,781.536,5310.832,781.72Z" transform="translate(-5310.832 -781.376)"/>
          </g>
          <g id="Group_3683" data-name="Group 3683" transform="translate(1.019 4.614)">
            <path id="Path_63338" data-name="Path 63338" d="M5354.745,779.014c.011.183.117.326.239.319s.212-.161.2-.343-.117-.326-.239-.319S5354.734,778.832,5354.745,779.014Z" transform="translate(-5354.744 -778.671)"/>
          </g>
          <path id="Path_63339" data-name="Path 63339" d="M5233.37,775c.011.4-.129.681-.423.723l-.461-1.38C5232.781,774.3,5233.346,774.143,5233.37,775Z" transform="translate(-5227.739 -769.841)" fill="#f7ac92"/>
          <path id="Path_63340" data-name="Path 63340" d="M5243.67,782.4c.018.167.078.3.139.292s.1-.146.083-.313-.078-.3-.138-.292S5243.655,782.236,5243.67,782.4Z" transform="translate(-5238.642 -777.359)" fill="#c66f58"/>
          <path id="Path_63341" data-name="Path 63341" d="M5327.851,802.889a1.176,1.176,0,0,0,.666-.072.06.06,0,0,0-.048-.11c-.155.064-.587.182-.7-.03a.172.172,0,0,1-.021-.158c.043-.091.2-.14.249-.15a.059.059,0,0,0,.05-.059l-.005-.565a.06.06,0,0,0-.06-.059.056.056,0,0,0-.057.06l.005.518a.454.454,0,0,0-.288.2.278.278,0,0,0,.021.266A.328.328,0,0,0,5327.851,802.889Z" transform="translate(-5326.165 -796.286)" fill="#c66f58"/>
        </g>
        <g id="Group_3685" data-name="Group 3685" transform="translate(0 0)">
          <path id="Path_63342" data-name="Path 63342" d="M5255.613,714.783l-2.576.2h0c.195.969,2.828,1.625,4.3,1.5l2.958-.222S5255.62,714.775,5255.613,714.783Z" transform="translate(-5253.037 -711.725)" fill="#de875a"/>
          <path id="Path_63343" data-name="Path 63343" d="M5181.17,637.831a11.046,11.046,0,0,0,5.645,1.814,8.225,8.225,0,0,0,1.275-.03l.138-.546a3.174,3.174,0,0,0-2.443-3.757l-.042-.01-.476-.122a3.173,3.173,0,0,0-3.955,2.105Z" transform="translate(-5178.608 -634.725)" fill="#330601"/>
          <path id="Path_63344" data-name="Path 63344" d="M5182.277,646.372a8.169,8.169,0,0,0,1.274-.03l.14-.546a3.177,3.177,0,0,0-2.444-3.756l-.041-.01-.037.062A3.459,3.459,0,0,1,5182.277,646.372Z" transform="translate(-5174.069 -641.453)" fill="#006837" opacity="0.3"/>
          <rect id="Rectangle_2738" data-name="Rectangle 2738" width="1.083" height="0.556" rx="0.278" transform="translate(7.423 0.809) rotate(-165.539)" fill="#de875a"/>
        </g>
        <path id="Path_63345" data-name="Path 63345" d="M5305.929,841.922a1.065,1.065,0,0,1-1.252.655" transform="translate(-5300.429 -834.527)" fill="none" stroke="#c66f58" stroke-linecap="round" stroke-width="0.1"/>
      </g>
      <path id="Path_63346" data-name="Path 63346" d="M4997.677,1444.968l2.149.75,12.176-1.33-.237-1.466-11.8,1.3-2.148-.682Z" transform="translate(-4981.85 -1415.029)" fill="#de875a"/>
      <path id="Path_63347" data-name="Path 63347" d="M5023.546,1297.292l2.114.677,10.886-1.253-.258-1.464L5025.8,1296.4l-2.127-.555Z" transform="translate(-5007.277 -1272.395)" fill="#de875a"/>
      <path id="Path_63348" data-name="Path 63348" d="M5113.994,1219.261c.758-.093,3.929-1.073,3.929-1.073l8.325-3.486a.59.59,0,0,0,.357-.467l.435-3.128,5.283-.186-.076,1.969c0,1.64-.433,3.72-1.642,4.428a1.061,1.061,0,0,1-.274.114l-11.521,3.149a2.214,2.214,0,0,1-1.974-.151,6.939,6.939,0,0,0-3.779.617C5112.166,1221.535,5112.985,1219.385,5113.994,1219.261Z" transform="translate(-5106.094 -1190.942)" fill="#f9a78a"/>
      <path id="Path_63349" data-name="Path 63349" d="M5097.9,1047.682l-6.227-.171.755-4.658a2.546,2.546,0,0,1,2.152-2.041h0a2.547,2.547,0,0,1,2.881,2.256Z" transform="translate(-5070.962 -1026.61)" fill="#bdccd4"/>
    </g>
    <g id="Group_3699" data-name="Group 3699" transform="translate(0 17.659)">
      <g id="Group_3688" data-name="Group 3688" transform="translate(0.533 0)">
        <path id="Path_63350" data-name="Path 63350" d="M5651.362,1219.4l29.688,4.288a.776.776,0,0,0,.879-.658l.122-.849a.775.775,0,0,0-.656-.879l-29.688-4.287a.776.776,0,0,0-.879.657l-.124.85A.777.777,0,0,0,5651.362,1219.4Z" transform="translate(-5650.696 -1214.475)" fill="#de875a"/>
        <path id="Path_63351" data-name="Path 63351" d="M5706.151,1145.638l27.181,3.926a3.2,3.2,0,0,0-.005-.981,3.268,3.268,0,0,0-.6-1.411,3.142,3.142,0,0,0-.341-.386,3.2,3.2,0,0,0-1.78-.875l-20.8-3a3.219,3.219,0,0,0-3.65,2.729Z" transform="translate(-5703.896 -1142.875)" fill="#de875a"/>
        <path id="Path_63352" data-name="Path 63352" d="M5706.151,1197.3l27.181,3.925a3.208,3.208,0,0,0-.005-.981l-26.89-3.882A3.213,3.213,0,0,0,5706.151,1197.3Z" transform="translate(-5703.896 -1194.541)" fill="#de875a" opacity="0.2"/>
        <line id="Line_15" data-name="Line 15" y1="0.491" x2="1.28" transform="translate(0.534 2.894)" fill="#fff" opacity="0.15"/>
      </g>
      <g id="Group_3697" data-name="Group 3697" transform="translate(0 5.171)">
        <g id="Group_3689" data-name="Group 3689" transform="translate(13.739 34.915)">
          <path id="Path_63353" data-name="Path 63353" d="M5993.054,2318.392l-.489,4.572-6.219.325,1-5.115Z" transform="translate(-5986.347 -2318.174)" fill="#9c1803"/>
          <path id="Path_63354" data-name="Path 63354" d="M5993.054,2318.392l-.489,4.572-6.219.325,1-5.115Z" transform="translate(-5986.347 -2318.174)" fill="#9c1803" opacity="0.3"/>
        </g>
        <g id="Group_3690" data-name="Group 3690" transform="translate(1.775)">
          <path id="Path_63355" data-name="Path 63355" d="M5734.448,1295.315l-.062.449a.978.978,0,0,0,.828,1.108l25.243,3.646a.978.978,0,0,0,1.107-.829l.068-.449a.957.957,0,0,0-.059-.5.975.975,0,0,0-.77-.613l-25.249-3.646a.979.979,0,0,0-.913.37A1.03,1.03,0,0,0,5734.448,1295.315Z" transform="translate(-5734.375 -1294.477)" fill="#9c1803"/>
        </g>
        <g id="Group_3691" data-name="Group 3691" transform="translate(15.453 35.201)">
          <circle id="Ellipse_451" data-name="Ellipse 451" cx="3.186" cy="3.186" r="3.186" transform="translate(4.506 9.013) rotate(-135)" fill="#30302e"/>
          <ellipse id="Ellipse_452" data-name="Ellipse 452" cx="2.101" cy="2.101" rx="2.101" ry="2.101" transform="translate(6.28 6.89) rotate(-171.654)" fill="#de875a"/>
          <ellipse id="Ellipse_453" data-name="Ellipse 453" cx="1.051" cy="1.051" rx="1.051" ry="1.051" transform="matrix(-0.982, -0.187, 0.187, -0.982, 5.342, 5.735)" fill="#330601" opacity="0.3"/>
        </g>
        <g id="Group_3696" data-name="Group 3696" transform="translate(0 2.45)">
          <path id="Path_63356" data-name="Path 63356" d="M5791.675,1366.317l-.065.827-2.417,30.014h0l-.418,5.209-.076.537a.738.738,0,0,0-.011.116,1,1,0,0,0,.854,1.013l2.986.431a.994.994,0,0,0,1.106-.729c.011-.037.016-.075.024-.114a.542.542,0,0,1,.615-.46l9.25,1.336a1.1,1.1,0,0,0,1.26-1c.01-.094.021-.189.034-.284a4.134,4.134,0,0,1,4.682-3.5.121.121,0,0,0,.133-.091l.221-1.059,5.285-25.233.085-.4.481-2.3.172-.813Z" transform="translate(-5788.686 -1366.317)" fill="#330601"/>
          <path id="Path_63357" data-name="Path 63357" d="M5788.755,1366.317l24.2,3.494-.166.813-24.1-3.48Z" transform="translate(-5785.765 -1366.317)" fill="#006837" opacity="0.3"/>
          <g id="Group_3695" data-name="Group 3695" transform="translate(4.814 14.88)" style="mix-blend-mode: normal;isolation: isolate">
            <g id="Group_3692" data-name="Group 3692" transform="translate(10.018 1.447)">
              <path id="Path_63358" data-name="Path 63358" d="M6049.366,1859.752l.626.09a.423.423,0,0,0,.478-.36l2.008-13.894a.426.426,0,0,0-.36-.482l-.624-.09a.423.423,0,0,0-.479.36l-2.007,13.893A.423.423,0,0,0,6049.366,1859.752Z" transform="translate(-6049.003 -1845.012)" fill="#de875a" opacity="0.3"/>
              <path id="Path_63359" data-name="Path 63359" d="M6043.281,1854.365l-2,13.851c-.035.245-.394.4-.8.337a1.332,1.332,0,0,1-.242-.061.983.983,0,0,0,.55.249h0c.4.059.758-.092.792-.337l2-13.851c.028-.192-.151-.385-.423-.487A.36.36,0,0,1,6043.281,1854.365Z" transform="translate(-6039.811 -1853.756)" fill="#de875a" opacity="0.1"/>
            </g>
            <g id="Group_3693" data-name="Group 3693" transform="translate(5.01 0.723)">
              <path id="Path_63360" data-name="Path 63360" d="M6196.248,1838.541l.619.089a.424.424,0,0,0,.483-.36l2.005-13.893a.425.425,0,0,0-.357-.483l-.625-.089a.421.421,0,0,0-.478.359l-2.006,13.894A.422.422,0,0,0,6196.248,1838.541Z" transform="translate(-6195.884 -1823.801)" fill="#de875a" opacity="0.3"/>
              <path id="Path_63361" data-name="Path 63361" d="M6190.163,1833.154l-2,13.852c-.035.244-.394.395-.8.337a1.233,1.233,0,0,1-.243-.062.985.985,0,0,0,.55.249h0c.4.058.758-.093.793-.336l2-13.852c.026-.191-.154-.385-.425-.486A.356.356,0,0,1,6190.163,1833.154Z" transform="translate(-6186.692 -1832.546)" fill="#de875a" opacity="0.1"/>
            </g>
            <g id="Group_3694" data-name="Group 3694" transform="translate(0)">
              <path id="Path_63362" data-name="Path 63362" d="M6343.131,1817.33l.62.089a.424.424,0,0,0,.48-.36l2.008-13.894a.428.428,0,0,0-.361-.481l-.621-.09a.427.427,0,0,0-.482.36l-2.006,13.894A.426.426,0,0,0,6343.131,1817.33Z" transform="translate(-6342.764 -1802.59)" fill="#de875a" opacity="0.3"/>
              <path id="Path_63363" data-name="Path 63363" d="M6337.043,1811.942l-2,13.852c-.035.244-.389.394-.8.336a1.328,1.328,0,0,1-.244-.061,1,1,0,0,0,.551.248h0c.4.058.757-.093.794-.336l2-13.851c.026-.192-.154-.385-.429-.486A.361.361,0,0,1,6337.043,1811.942Z" transform="translate(-6333.571 -1811.335)" fill="#de875a" opacity="0.1"/>
            </g>
          </g>
          <path id="Path_63364" data-name="Path 63364" d="M6422.153,2423.3l-.079.538a.842.842,0,0,0-.008.116l4.946.715a.677.677,0,0,0,.022-.114.543.543,0,0,1,.617-.46Z" transform="translate(-6422.066 -2387.248)" fill="#de875a"/>
        </g>
      </g>
      <g id="Group_3698" data-name="Group 3698" transform="translate(9.781 12.945)">
        <path id="Path_63365" data-name="Path 63365" d="M6187.794,1643.974l2.474.357.091-.628-2.474-.357a.846.846,0,0,1-.672-.528.857.857,0,0,1,.121-.843l.5-.636-.5-.392-.5.636a1.483,1.483,0,0,0,.954,2.39Z" transform="translate(-6186.518 -1636.905)" fill="#fbe6d3"/>
        <path id="Path_63366" data-name="Path 63366" d="M6059.925,1645.7l.819.118a1.485,1.485,0,0,0,1.589-2.022l-.684-1.715-.589.236.689,1.714a.852.852,0,0,1-.916,1.159l-.819-.117Z" transform="translate(-6054.285 -1637.997)" fill="#fbe6d3"/>
        <path id="Path_63367" data-name="Path 63367" d="M6111.234,1525.214l1.443-1.832a.849.849,0,0,1,1.458.21l.32.794.588-.235-.316-.793a1.473,1.473,0,0,0-1.168-.92h0a1.469,1.469,0,0,0-1.381.551l-1.443,1.833Z" transform="translate(-6108.62 -1522.421)" fill="#fbe6d3"/>
        <path id="Path_63368" data-name="Path 63368" d="M6203,1580.141l.214-2.081,1.63,1.093Z" transform="translate(-6201.561 -1576.162)" fill="#fbe6d3"/>
        <path id="Path_63369" data-name="Path 63369" d="M6065.42,1596.543l1.691,1.228-1.759.864Z" transform="translate(-6059.141 -1594.015)" fill="#fbe6d3"/>
        <path id="Path_63370" data-name="Path 63370" d="M6149.03,1701.463l-1.913.852.069-1.024.065-.932Z" transform="translate(-6143.846 -1694.291)" fill="#fbe6d3"/>
      </g>
    </g>
  </g>
</svg>
