<svg xmlns="http://www.w3.org/2000/svg" width="21.33" height="19.432" viewBox="0 0 21.33 19.432">
  <path id="Path_61366" data-name="Path 61366" d="M342.266,25.411H336.5m-.089.305-2.447,7.309c-.192.574-.288.861-.219,1.038a.524.524,0,0,0,.347.314c.183.051.459-.073,1.011-.322l17.514-7.881c.539-.243.808-.364.892-.532a.524.524,0,0,0,0-.464c-.084-.168-.353-.29-.892-.532L335.1,16.763c-.55-.248-.826-.372-1.008-.321a.523.523,0,0,0-.347.314c-.069.176.025.463.216,1.036l2.454,7.4a1.106,1.106,0,0,1,.056.2.577.577,0,0,1,0,.135A1.133,1.133,0,0,1,336.413,25.717Z" transform="translate(-332.993 -15.694)" fill="none" stroke="#30302e" stroke-linecap="round" stroke-linejoin="round" stroke-width="1.5"/>
</svg>
